<?xml version="1.0" encoding="utf-8"?>
<!-- Generator: Adobe Illustrator 23.0.4, SVG Export Plug-In . SVG Version: 6.00 Build 0)  -->
<svg version="1.0" xmlns="http://www.w3.org/2000/svg" xmlns:xlink="http://www.w3.org/1999/xlink" x="0px" y="0px"
	 viewBox="0 0 89.7 91.2" enable-background="new 0 0 89.7 91.2" xml:space="preserve">
<g id="outlines">
	<path fill="#87AB39" d="M72.5,80.3c0.8-0.9,1.9-2.1,3-3.7c1.1-1.5,2.2-3.4,3-5.5c0.8-2.1,1.4-4.5,1.4-7l0,0v0c0,0,0,0,0,0l0,0h0
		c0-2.5-0.6-4.9-1.4-7c-1.2-3.2-3.1-5.8-4.6-7.6c-0.8-1-1.6-1.8-2.1-2.3V35.5c0,0,0,0,0,0c0,0,0-0.1,0-0.1v0c0,0,0,0,0,0
		c-0.1-8.7-7.1-15.7-15.8-15.7c-5.8,0-10.8,3.1-13.6,7.7c-2.8-4.6-7.8-7.7-13.6-7.7c-4.4,0-8.4,1.8-11.3,4.8v-3.2
		c0-1.2-1-2.2-2.2-2.2c-1.2,0-2.2,1-2.2,2.2v43.2c0,1.2,1,2.2,2.2,2.2c1.2,0,2.2-1,2.2-2.2V35.5c0,0,0,0,0-0.1c0-3.1,1.3-5.9,3.3-8
		c2.1-2.1,4.9-3.3,8-3.3c3.1,0,5.9,1.3,8,3.3c2,2,3.3,4.8,3.3,8c0,0,0,0,0,0c0,0,0,0,0,0.1v28.8c0,1.2,1,2.2,2.2,2.2
		c1.2,0,2.2-1,2.2-2.2v-29c0-3.1,1.3-5.9,3.3-7.9c2.1-2.1,4.9-3.3,8-3.3c3.1,0,5.9,1.3,8,3.3c2,2,3.3,4.8,3.3,7.9v11.9
		c-0.8,0.8-2.2,2.3-3.5,4.3c-1.1,1.5-2.2,3.4-3,5.5c-0.8,2.1-1.4,4.4-1.4,7h0l0,0c0,0,0,0,0,0h0l0,0c0,2.5,0.6,4.9,1.4,7
		c1.2,3.2,3.1,5.8,4.6,7.6c0.5,0.6,1,1.2,1.4,1.6l-5.7,4.8c-0.9,0.8-1.1,2.2-0.3,3.2c0.8,0.9,2.2,1.1,3.2,0.3l5.6-4.7l5.7,4.8
		c0.9,0.8,2.4,0.7,3.2-0.3c0.8-0.9,0.7-2.4-0.3-3.2L72.5,80.3z M65,69.3c-0.7-1.7-1.1-3.5-1.1-5.3v0l0,0l0,0c0-1.9,0.4-3.7,1.1-5.4
		c1-2.5,2.6-4.8,3.9-6.4c0.3-0.3,0.5-0.6,0.8-0.9c0.7,0.7,1.4,1.7,2.2,2.8c0.9,1.3,1.8,2.9,2.4,4.6c0.7,1.7,1.1,3.5,1.1,5.3l0,0l0,0
		h0c0,1.9-0.4,3.7-1.1,5.4c-1,2.5-2.6,4.8-3.9,6.4c-0.3,0.3-0.5,0.6-0.8,0.9C69,76,68.2,75,67.4,73.9C66.5,72.6,65.6,71,65,69.3z"/>
</g>
<g id="working" display="none">
	
		<line display="inline" fill="none" stroke="#231F20" stroke-width="4.5" stroke-linecap="round" stroke-linejoin="round" stroke-miterlimit="10" x1="15.4" y1="64.3" x2="15.4" y2="21.2"/>
	
		<line display="inline" fill="none" stroke="#231F20" stroke-width="4.5" stroke-linecap="round" stroke-linejoin="round" stroke-miterlimit="10" x1="42.5" y1="64.3" x2="42.5" y2="33"/>
	
		<line display="inline" fill="none" stroke="#231F20" stroke-width="4.5" stroke-linecap="round" stroke-linejoin="round" stroke-miterlimit="10" x1="69.6" y1="48.4" x2="69.6" y2="35.3"/>
	
		<line display="inline" fill="none" stroke="#231F20" stroke-width="4.5" stroke-linecap="round" stroke-linejoin="round" stroke-miterlimit="10" x1="62.6" y1="86.8" x2="69.7" y2="80.8"/>
	
		<path display="inline" fill="none" stroke="#231F20" stroke-width="4.5" stroke-linecap="round" stroke-linejoin="round" stroke-miterlimit="10" d="
		M42.5,35.4c0-7.5-6.1-13.6-13.6-13.6S15.4,28,15.4,35.4"/>
	
		<path display="inline" fill="none" stroke="#231F20" stroke-width="4.5" stroke-linecap="round" stroke-linejoin="round" stroke-miterlimit="10" d="
		M69.6,35.4c0-7.5-6.1-13.6-13.6-13.6S42.5,28,42.5,35.4"/>
	
		<path display="inline" fill="none" stroke="#231F20" stroke-width="4.5" stroke-linecap="round" stroke-linejoin="round" stroke-miterlimit="10" d="
		M77.7,64.1c0,8.8-8,15.9-8,15.9s-8-7.1-8-15.9s8-15.9,8-15.9S77.7,55.3,77.7,64.1z"/>
	
		<line display="inline" fill="none" stroke="#231F20" stroke-width="4.5" stroke-linecap="round" stroke-linejoin="round" stroke-miterlimit="10" x1="76.7" y1="86.9" x2="69.6" y2="80.8"/>
</g>
</svg>
