<?xml version="1.0" encoding="utf-8"?>
<!-- Generator: Adobe Illustrator 23.0.4, SVG Export Plug-In . SVG Version: 6.00 Build 0)  -->
<svg version="1.0" xmlns="http://www.w3.org/2000/svg" xmlns:xlink="http://www.w3.org/1999/xlink" x="0px" y="0px"
	 viewBox="0 0 89.7 91.2" enable-background="new 0 0 89.7 91.2" xml:space="preserve">
<g id="outlines">
	<path fill="#1D6142" d="M29,40c3.9-5.6,9.9-9.6,16.9-10.8l12.1-14.9c0.2-0.3,0.4-0.6,0.4-0.9c0.4-0.9,0.2-2-0.6-2.7
		c-1-0.8-2.4-0.6-3.2,0.3c-3.7,4.5-8.4,6.6-13.1,6.6c-4.7,0-9.4-2.1-13.1-6.6c-0.7-0.9-1.9-1.1-2.8-0.5c-0.3,0.1-0.6,0.3-0.8,0.6
		L20,17c-0.8,1-0.6,2.4,0.3,3.2c1,0.8,2.4,0.6,3.2-0.3l3.3-4.1C31,19.9,36.2,22,41.5,22c1.6,0,3.2-0.2,4.8-0.6l-7.7,9.4
		c-3.4,3.2-7.4,4.7-11.3,4.7c-2.7,0-5.3-0.7-7.8-2.1c-1.1-0.6-2.5-0.2-3.1,0.8c-0.6,1.1-0.2,2.5,0.8,3.1c3.1,1.8,6.5,2.7,10,2.7
		C27.9,40.1,28.5,40,29,40z"/>
	<g>
		<path fill="#1D6142" d="M73.9,54.6h2.2c0-14.3-11.6-25.8-25.8-25.8c-14.3,0-25.8,11.6-25.8,25.8c0,14.3,11.6,25.8,25.8,25.8
			c14.3,0,25.8-11.6,25.8-25.8H73.9h-2.2c0,5.9-2.4,11.2-6.2,15.1c-3.9,3.9-9.2,6.2-15.1,6.2c-5.9,0-11.2-2.4-15.1-6.2
			c-3.9-3.9-6.2-9.2-6.2-15.1c0-5.9,2.4-11.2,6.2-15.1c3.9-3.9,9.2-6.2,15.1-6.2c5.9,0,11.2,2.4,15.1,6.2c3.9,3.9,6.2,9.2,6.2,15.1
			H73.9z"/>
	</g>
</g>
<g id="working" display="none">
	<g display="inline">
		<circle fill="none" stroke="#231F20" stroke-width="4.5" stroke-miterlimit="10" cx="51" cy="55.6" r="23.6"/>
		
			<line fill="none" stroke="#231F20" stroke-width="4.5" stroke-linecap="round" stroke-linejoin="round" stroke-miterlimit="10" x1="22.4" y1="19.4" x2="27.3" y2="13.4"/>
		
			<line fill="none" stroke="#231F20" stroke-width="4.5" stroke-linecap="round" stroke-linejoin="round" stroke-miterlimit="10" x1="40.4" y1="34.2" x2="56.9" y2="13.8"/>
		
			<path fill="none" stroke="#231F20" stroke-width="4.5" stroke-linecap="round" stroke-linejoin="round" stroke-miterlimit="10" d="
			M27.4,13.3c8.1,9.9,21.6,9.9,29.6,0"/>
		
			<path fill="none" stroke="#231F20" stroke-width="4.5" stroke-linecap="round" stroke-linejoin="round" stroke-miterlimit="10" d="
			M19.2,36.4c7.4,4.2,16.6,2.9,23.1-4.2"/>
	</g>
</g>
</svg>
