<?xml version="1.0" encoding="utf-8"?>
<!-- Generator: Adobe Illustrator 23.0.4, SVG Export Plug-In . SVG Version: 6.00 Build 0)  -->
<svg version="1.0" id="Layer_1" xmlns="http://www.w3.org/2000/svg" xmlns:xlink="http://www.w3.org/1999/xlink" x="0px" y="0px"
	 viewBox="0 0 89.7 91.2" enable-background="new 0 0 89.7 91.2" xml:space="preserve">
<g id="working" display="none">
	
		<path display="inline" fill="none" stroke="#231F20" stroke-width="4.5" stroke-linecap="round" stroke-linejoin="round" stroke-miterlimit="10" d="
		M26.8,46.8c-9.4,0-16.9-7.6-16.9-16.9S17.5,13,26.8,13s16.9,7.6,16.9,16.9"/>
	
		<path display="inline" fill="none" stroke="#231F20" stroke-width="4.5" stroke-linecap="round" stroke-linejoin="round" stroke-miterlimit="10" d="
		M43.9,29.9c0-9.4,7.6-16.9,16.9-16.9s16.9,7.6,16.9,16.9s-7.6,16.9-16.9,16.9"/>
	
		<line display="inline" fill="none" stroke="#231F20" stroke-width="4.5" stroke-linecap="round" stroke-linejoin="round" stroke-miterlimit="10" x1="43.9" y1="28.8" x2="43.9" y2="79.4"/>
</g>
<g id="outlines">
	<path fill="#3F307F" d="M85.2,53.8L85.2,53.8c0,0-1.6-0.5-3.2-2.2c-0.9-0.9-1.8-2.1-2.5-3.1c-0.3-0.5-0.6-0.9-0.8-1.2
		c-0.1-0.2-0.2-0.3-0.2-0.4l0,0l0,0v-0.1l0,0l0,0l0,0c0-0.1-0.1-0.1-0.1-0.2l-0.1-0.1l0,0l0,0c-0.1-0.1-0.1-0.1-0.2-0.2
		c0,0-0.1,0-0.1-0.1l0,0l0,0c-0.1-0.1-0.1-0.1-0.2-0.2l0,0l0,0l0,0l0,0c-0.1,0-0.2-0.1-0.3-0.1h-0.1l0,0l0,0c-0.1,0-0.2,0-0.3-0.1
		H77c0,0,0,0-0.1,0h-0.1h-0.1c0,0,0,0-0.1,0h-0.1c-0.1,0-0.2,0-0.3,0.1c0,0,0,0-0.1,0H76c-0.1,0-0.2,0.1-0.2,0.1s0,0-0.1,0
		c0,0,0,0-0.1,0l0,0c-0.1,0-0.1,0.1-0.2,0.1c0,0,0,0-0.1,0.1l-0.1,0.1c-0.1,0-0.1,0.1-0.1,0.1s0,0-0.1,0.1l-0.1,0.1
		c0,0.1-0.1,0.1-0.1,0.2l0,0l0,0l0,0c0,0,0,0,0,0.1l0,0c-0.1,0.2-0.5,0.9-1.1,1.7c-0.7,1-1.5,2.2-2.4,3c-0.9,0.9-1.7,1.4-2.3,1.8
		c-0.3,0.2-0.5,0.3-0.7,0.3l-0.2,0.1l0,0l0,0c-1.2,0.4-1.8,1.6-1.5,2.8c0.4,1.2,1.6,1.9,2.8,1.5c0.2-0.1,2.6-0.8,5-3.3
		c0,0,0,0,0.1-0.1v10.2V65c0,1.8-0.7,3.4-1.9,4.6c-1.2,1.2-2.8,1.9-4.6,1.9c-1.8,0-3.4-0.7-4.6-1.9c-1.2-1.2-1.9-2.8-1.9-4.6
		c0,0,0,0,0-0.1l0,0V31.7l0,0c0-8.7-7.1-15.8-15.8-15.8c-5.8,0-10.8,3.1-13.6,7.7c-2.8-4.6-7.8-7.7-13.6-7.7
		c-4.4,0-8.4,1.8-11.3,4.8v-3.2c0-1.2-1-2.2-2.2-2.2s-2.2,1-2.2,2.2v43.2c0,1.2,1,2.2,2.2,2.2s2.2-1,2.2-2.2v-29c0,0,0,0,0-0.1
		c0-3.1,1.3-5.9,3.3-8c2.1-2.1,4.9-3.3,8-3.3s5.9,1.3,8,3.3c2,2,3.3,4.8,3.3,8l0,0c0,0,0,0,0,0.1v28.8c0,1.2,1,2.2,2.2,2.2
		c1.2,0,2.2-1,2.2-2.2v-29c0-3.1,1.3-5.9,3.3-7.9c2.1-2.1,4.9-3.3,8-3.3s5.9,1.3,8,3.3c2,2,3.3,4.9,3.3,8l0,0v33.3c0,0,0,0,0,0.1
		l0,0l0,0c0,6.1,4.9,11,11,11c6,0,10.8-4.8,11-10.7c0-0.1,0-0.2,0-0.2V54.8c0,0,0,0,0.1,0.1c2.5,2.5,4.8,3.2,5,3.3
		c1.2,0.4,2.4-0.3,2.8-1.5C87.1,55.3,86.4,54.2,85.2,53.8z"/>
</g>
</svg>
