<?xml version="1.0" encoding="utf-8"?>
<!-- Generator: Adobe Illustrator 23.0.4, SVG Export Plug-In . SVG Version: 6.00 Build 0)  -->
<svg version="1.0" xmlns="http://www.w3.org/2000/svg" xmlns:xlink="http://www.w3.org/1999/xlink" x="0px" y="0px"
	 viewBox="0 0 89.7 91.2" enable-background="new 0 0 89.7 91.2" xml:space="preserve">
<g id="outlines">
	<path fill="#F64A8A" d="M60.9,10.7c-7.4,0-13.8,4.2-17,10.3c-3.2-6.1-9.6-10.3-17-10.3c-10.6,0-19.2,8.6-19.2,19.2
		c0,10.6,8.6,19.2,19.2,19.2c1.2,0,2.2-1,2.2-2.2c0-1.2-1-2.2-2.2-2.2c-4.1,0-7.7-1.6-10.4-4.3c-2.7-2.7-4.3-6.3-4.3-10.4
		c0-4.1,1.6-7.7,4.3-10.4c2.7-2.7,6.3-4.3,10.4-4.3c4.1,0,7.7,1.6,10.4,4.3c2.7,2.7,4.3,6.3,4.3,10.4c0,0.2,0,0.4,0.1,0.5v49
		c0,1.2,1,2.2,2.2,2.2c1.2,0,2.2-1,2.2-2.2v-49c0-0.2,0.1-0.3,0.1-0.5h0c0-4.1,1.6-7.7,4.3-10.4c2.7-2.7,6.3-4.3,10.4-4.3
		c4.1,0,7.7,1.6,10.4,4.3c2.7,2.7,4.3,6.3,4.3,10.4c0,4.1-1.6,7.7-4.3,10.4c-2.7,2.7-6.3,4.3-10.4,4.3c-1.2,0-2.2,1-2.2,2.2
		c0,1.2,1,2.2,2.2,2.2c10.6,0,19.2-8.6,19.2-19.2C80.1,19.3,71.5,10.7,60.9,10.7z"/>
</g>
<g id="working" display="none">
	
		<path display="inline" fill="none" stroke="#231F20" stroke-width="4.5" stroke-linecap="round" stroke-linejoin="round" stroke-miterlimit="10" d="
		M26.8,46.8c-9.4,0-16.9-7.6-16.9-16.9s7.6-16.9,16.9-16.9s16.9,7.6,16.9,16.9"/>
	
		<path display="inline" fill="none" stroke="#231F20" stroke-width="4.5" stroke-linecap="round" stroke-linejoin="round" stroke-miterlimit="10" d="
		M43.9,29.9c0-9.4,7.6-16.9,16.9-16.9s16.9,7.6,16.9,16.9s-7.6,16.9-16.9,16.9"/>
	
		<line display="inline" fill="none" stroke="#231F20" stroke-width="4.5" stroke-linecap="round" stroke-linejoin="round" stroke-miterlimit="10" x1="43.9" y1="28.8" x2="43.9" y2="79.4"/>
</g>
</svg>
