<?xml version="1.0" encoding="utf-8"?>
<!-- Generator: Adobe Illustrator 23.0.4, SVG Export Plug-In . SVG Version: 6.00 Build 0)  -->
<svg version="1.0" xmlns="http://www.w3.org/2000/svg" xmlns:xlink="http://www.w3.org/1999/xlink" x="0px" y="0px"
	 viewBox="0 0 89.7 91.2" enable-background="new 0 0 89.7 91.2" xml:space="preserve">
<g id="outlines">
	<g>
		<path fill="#624E9A" d="M66.9,24.5c2.8,2.8,4.9,5.9,6.4,9.3c4.4,2.7,7.3,7.6,7.4,13.2c0,0,0,0,0,0c0-9.3-3.5-18.5-10.6-25.6
			C63,14.2,53.8,10.7,44.5,10.7c-9.3,0-18.5,3.5-25.6,10.6c-0.9,0.9-0.9,2.3,0,3.2c0.9,0.9,2.3,0.9,3.2,0l0,0
			c6.2-6.2,14.3-9.3,22.4-9.3C52.6,15.2,60.7,18.3,66.9,24.5z"/>
		<polygon fill="#624E9A" points="76.2,46.9 76.2,46.9 76.2,46.9 		"/>
		<path fill="#624E9A" d="M80.6,48.4c0-0.1,0.1-0.3,0.1-0.5c0-0.3,0-0.7,0-1C80.7,47.4,80.7,47.9,80.6,48.4z"/>
	</g>
	<path fill="#624E9A" d="M70.1,69.3c-0.9-0.9-2.3-0.9-3.2,0h0c-6.2,6.2-14.3,9.3-22.4,9.3c-8.1,0-16.2-3.1-22.4-9.3
		c-2.8-2.8-4.9-5.9-6.4-9.3c-4.2-2.6-7.1-7.2-7.3-12.5c0,0.1,0,0.2,0,0.2c0.2,9,3.8,17.9,10.6,24.7c7.1,7.1,16.3,10.6,25.6,10.6
		c9.3,0,18.5-3.5,25.6-10.6C71,71.6,71,70.2,70.1,69.3z"/>
	<g>
		<path fill="#624E9A" d="M78.5,46.9h-2.2c0,3-1.2,5.8-3.2,7.8c-2,2-4.7,3.2-7.8,3.2c-3,0-5.8-1.2-7.8-3.2c-2-2-3.2-4.7-3.2-7.8
			c0-3,1.2-5.8,3.2-7.8c2-2,4.7-3.2,7.8-3.2c3,0,5.8,1.2,7.8,3.2c2,2,3.2,4.7,3.2,7.8H78.5h2.2c0-8.5-6.9-15.5-15.5-15.5
			c-8.5,0-15.5,6.9-15.5,15.5c0,8.5,6.9,15.5,15.5,15.5c8.5,0,15.5-6.9,15.5-15.5H78.5z"/>
	</g>
	<g>
		<path fill="#624E9A" d="M37,46.9h-2.2c0,3-1.2,5.8-3.2,7.8c-2,2-4.7,3.2-7.8,3.2c-3,0-5.8-1.2-7.8-3.2c-2-2-3.2-4.7-3.2-7.8
			c0-3,1.2-5.8,3.2-7.8c2-2,4.7-3.2,7.8-3.2c3,0,5.8,1.2,7.8,3.2c2,2,3.2,4.7,3.2,7.8H37h2.2c0-8.5-6.9-15.5-15.5-15.5
			c-8.5,0-15.5,6.9-15.5,15.5c0,8.5,6.9,15.5,15.5,15.5c8.5,0,15.5-6.9,15.5-15.5H37z"/>
	</g>
</g>
<g id="working" display="none">
	
		<circle display="inline" fill="none" stroke="#231F20" stroke-width="4.5" stroke-linecap="round" stroke-linejoin="round" stroke-miterlimit="10" cx="65.2" cy="46.9" r="13.2"/>
	
		<circle display="inline" fill="none" stroke="#231F20" stroke-width="4.5" stroke-linecap="round" stroke-linejoin="round" stroke-miterlimit="10" cx="23.8" cy="46.9" r="13.2"/>
	
		<path display="inline" fill="none" stroke="#231F20" stroke-width="4.5" stroke-linecap="round" stroke-linejoin="round" stroke-miterlimit="10" d="
		M20.5,22.9c13.3-13.3,34.8-13.3,48,0c6.9,6.9,10.2,16,9.9,25"/>
	
		<path display="inline" fill="none" stroke="#231F20" stroke-width="4.5" stroke-linecap="round" stroke-linejoin="round" stroke-miterlimit="10" d="
		M68.5,70.9c-13.3,13.3-34.8,13.3-48,0c-6.4-6.4-9.7-14.8-9.9-23.2"/>
</g>
</svg>
