<?xml version="1.0" encoding="utf-8"?>
<!-- Generator: Adobe Illustrator 23.0.4, SVG Export Plug-In . SVG Version: 6.00 Build 0)  -->
<svg version="1.0" xmlns="http://www.w3.org/2000/svg" xmlns:xlink="http://www.w3.org/1999/xlink" x="0px" y="0px"
	 viewBox="0 0 89.7 91.2" enable-background="new 0 0 89.7 91.2" xml:space="preserve">
<g id="outlines">
	<g>
		<path fill="#1E385B" d="M70.6,50.3C70.5,50.3,70.5,50.3,70.6,50.3c-0.9-0.9-2.4-0.9-3.2-0.1L56.9,60.7L46.7,50.4c0,0,0,0-0.1-0.1
			c-0.9-0.9-2.3-0.9-3.2,0L33.1,60.7L22.8,50.4c0,0,0,0-0.1-0.1c-0.3-0.3-0.7-0.5-1.2-0.6c-0.7-0.1-1.5,0.1-2,0.6c0,0,0,0.1-0.1,0.1
			L7.6,62.4c-0.9,0.9-0.9,2.3,0,3.2c0.9,0.9,2.3,0.9,3.2,0l10.4-10.4l10.3,10.3c0.4,0.4,1,0.7,1.6,0.7c0.6,0,1.2-0.2,1.6-0.7
			L45,55.1l10.3,10.3c0.9,0.9,2.3,0.9,3.2,0c0,0,0-0.1,0.1-0.1L68.9,55l10.3,10.3c0.9,0.9,2.3,0.9,3.2,0c0.9-0.9,0.9-2.3,0-3.2
			L70.6,50.3z"/>
		<path fill="#1E385B" d="M10.8,44.5l10.4-10.4l10.3,10.3c0.4,0.4,1,0.7,1.6,0.7c0.6,0,1.2-0.2,1.6-0.7L45,34.1l10.3,10.3
			c0.9,0.9,2.3,0.9,3.2,0c0,0,0-0.1,0.1-0.1L68.9,34l10.3,10.3c0.9,0.9,2.3,0.9,3.2,0c0.9-0.9,0.9-2.3,0-3.2L70.6,29.3
			c0,0,0,0,0-0.1c-0.9-0.9-2.3-0.9-3.2,0L56.9,39.7L46.7,29.4c0,0,0,0-0.1-0.1c-0.9-0.9-2.3-0.9-3.2,0L33.1,39.7L22.8,29.4
			c0,0,0,0-0.1-0.1c-0.3-0.3-0.7-0.5-1.2-0.6c-0.7-0.1-1.5,0.1-2,0.6c0,0,0,0.1-0.1,0.1L7.6,41.4c-0.9,0.9-0.9,2.3,0,3.2
			C8.5,45.4,9.9,45.4,10.8,44.5z"/>
	</g>
</g>
<g id="working" display="none">
	<g display="inline">
		
			<line fill="none" stroke="#231F20" stroke-width="4.5" stroke-linecap="round" stroke-linejoin="round" stroke-miterlimit="10" x1="80.8" y1="63.8" x2="68.9" y2="51.9"/>
		
			<line fill="none" stroke="#231F20" stroke-width="4.5" stroke-linecap="round" stroke-linejoin="round" stroke-miterlimit="10" x1="57" y1="63.8" x2="68.9" y2="51.9"/>
		
			<line fill="none" stroke="#231F20" stroke-width="4.5" stroke-linecap="round" stroke-linejoin="round" stroke-miterlimit="10" x1="56.9" y1="63.8" x2="45" y2="51.9"/>
		
			<line fill="none" stroke="#231F20" stroke-width="4.5" stroke-linecap="round" stroke-linejoin="round" stroke-miterlimit="10" x1="33.1" y1="63.9" x2="45" y2="51.9"/>
		
			<line fill="none" stroke="#231F20" stroke-width="4.5" stroke-linecap="round" stroke-linejoin="round" stroke-miterlimit="10" x1="33.1" y1="63.9" x2="21.1" y2="52"/>
		
			<line fill="none" stroke="#231F20" stroke-width="4.5" stroke-linecap="round" stroke-linejoin="round" stroke-miterlimit="10" x1="9.2" y1="63.9" x2="21.2" y2="52"/>
		
			<line fill="none" stroke="#231F20" stroke-width="4.5" stroke-linecap="round" stroke-linejoin="round" stroke-miterlimit="10" x1="80.8" y1="42.8" x2="68.9" y2="30.9"/>
		
			<line fill="none" stroke="#231F20" stroke-width="4.5" stroke-linecap="round" stroke-linejoin="round" stroke-miterlimit="10" x1="57" y1="42.8" x2="68.9" y2="30.9"/>
		
			<line fill="none" stroke="#231F20" stroke-width="4.5" stroke-linecap="round" stroke-linejoin="round" stroke-miterlimit="10" x1="56.9" y1="42.8" x2="45" y2="30.9"/>
		
			<line fill="none" stroke="#231F20" stroke-width="4.5" stroke-linecap="round" stroke-linejoin="round" stroke-miterlimit="10" x1="33.1" y1="42.9" x2="45" y2="30.9"/>
		
			<line fill="none" stroke="#231F20" stroke-width="4.5" stroke-linecap="round" stroke-linejoin="round" stroke-miterlimit="10" x1="33.1" y1="42.9" x2="21.1" y2="31"/>
		
			<line fill="none" stroke="#231F20" stroke-width="4.5" stroke-linecap="round" stroke-linejoin="round" stroke-miterlimit="10" x1="9.2" y1="42.9" x2="21.2" y2="31"/>
	</g>
</g>
</svg>
