<?xml version="1.0" encoding="utf-8"?>
<!-- Generator: Adobe Illustrator 23.0.4, SVG Export Plug-In . SVG Version: 6.00 Build 0)  -->
<svg version="1.0" xmlns="http://www.w3.org/2000/svg" xmlns:xlink="http://www.w3.org/1999/xlink" x="0px" y="0px"
	 viewBox="0 0 89.7 91.2" enable-background="new 0 0 89.7 91.2" xml:space="preserve">
<g id="outlines">
	<path fill="#803690" d="M74.4,72.1L74.4,72.1c-5.3-2.2-9.5-5.9-12.5-10.4c-2.5-3.8-4-8.2-4.4-12.8h12c1.2,0,2.2-1,2.2-2.2
		c0-1.2-1-2.2-2.2-2.2h-12c0.2-2.9,0.9-5.8,2.1-8.6C62.5,29,67.7,23.9,74,21.1c1.1-0.5,1.7-1.8,1.2-3c-0.5-1.1-1.8-1.7-3-1.2
		c-7.3,3.2-13.4,9.1-16.8,17c-1.4,3.4-2.2,6.9-2.4,10.3H37.9c-0.4-5.6-2.1-10.9-5.2-15.6c-3.4-5.2-8.3-9.5-14.5-12.1
		c-1.1-0.5-2.5,0.1-2.9,1.2c-0.5,1.1,0.1,2.5,1.2,2.9c5.3,2.2,9.5,5.9,12.5,10.4c2.6,3.9,4.1,8.4,4.4,13.1H20.2
		c-1.2,0-2.2,1-2.2,2.2c0,1.2,1,2.2,2.2,2.2h13.2c-0.2,2.8-0.9,5.6-2.1,8.3c-3.1,7.3-8.9,12.6-15.8,15.2c-1.2,0.4-1.8,1.7-1.3,2.9
		c0.4,1.2,1.7,1.8,2.9,1.3c8-3,14.8-9.2,18.4-17.7c1.4-3.3,2.2-6.6,2.4-10H53c0.4,5.5,2.2,10.7,5.2,15.3c3.4,5.2,8.3,9.5,14.5,12.1
		c1.1,0.5,2.5-0.1,2.9-1.2S75.6,72.6,74.4,72.1z"/>
</g>
<g id="working" display="none">
	
		<path display="inline" fill="none" stroke="#231F20" stroke-width="4.5" stroke-linecap="round" stroke-linejoin="round" stroke-miterlimit="10" d="
		M17.3,18.8c15.3,6.4,22.4,24,16,39.2c-3.3,7.9-9.6,13.7-17.1,16.5"/>
	
		<path display="inline" fill="none" stroke="#231F20" stroke-width="4.5" stroke-linecap="round" stroke-linejoin="round" stroke-miterlimit="10" d="
		M73.5,74.1c-15.3-6.4-22.4-24-16-39.2c3.1-7.4,8.8-12.9,15.6-15.8"/>
	
		<line display="inline" fill="none" stroke="#231F20" stroke-width="4.5" stroke-linecap="round" stroke-linejoin="round" stroke-miterlimit="10" x1="69.5" y1="46.6" x2="20.2" y2="46.6"/>
</g>
</svg>
