<?xml version="1.0" encoding="utf-8"?>
<!-- Generator: Adobe Illustrator 23.0.4, SVG Export Plug-In . SVG Version: 6.00 Build 0)  -->
<svg version="1.0" xmlns="http://www.w3.org/2000/svg" xmlns:xlink="http://www.w3.org/1999/xlink" x="0px" y="0px"
	 viewBox="0 0 89.7 91.2" enable-background="new 0 0 89.7 91.2" xml:space="preserve">
<g id="outlines">
	<path fill="#F34723" d="M65.4,57.6c-0.9-0.9-2.3-0.8-3.2,0.1c-0.9,0.9-0.8,2.3,0.1,3.2h0c2,1.9,3,4.5,3,7.1c0,2.5-0.9,4.9-2.8,6.9
		c-1.9,2-4.5,3-7.1,3c-2.5,0-4.9-0.9-6.9-2.8c-2-1.9-3-4.5-3-7.1c0-2.1,0.7-4.2,2-5.9c0,0,0,0,0,0c0,0,0,0,0,0l15.7-21.8
		c0,0,0,0,0-0.1c2.6-3.5,3.9-7.7,3.9-11.8c0-5-1.9-10-5.6-13.8c-3.9-4.1-9.2-6.1-14.4-6.1c-5,0-10,1.9-13.8,5.6
		c-4.1,3.9-6.1,9.2-6.1,14.4c0,1.8,0.3,3.6,0.7,5.4c0,0.1,0,0.3,0.1,0.4l0.3,1.1c-0.9-0.3-1.9-0.4-2.9-0.4c-0.8,0-1.5,0.1-2.3,0.3
		c-2.3,0.5-4.3,1.9-5.7,3.6c-1.4,1.7-2.2,3.9-2.2,6.3c0,0.8,0.1,1.5,0.3,2.3h0c0.5,2.3,1.9,4.3,3.6,5.7c1.7,1.4,3.9,2.2,6.2,2.2
		c0.8,0,1.5-0.1,2.3-0.3c2.3-0.5,4.3-1.9,5.7-3.6c1.4-1.7,2.2-3.9,2.2-6.2c0-0.8-0.1-1.5-0.3-2.3c-0.1-0.5-0.3-1-0.5-1.5l-2.4-8
		c0-0.1,0-0.1,0-0.2l0,0c-0.5-1.5-0.7-3-0.7-4.6c0-4.1,1.6-8.1,4.7-11.1c3-2.9,6.9-4.3,10.7-4.3c4.1,0,8.1,1.6,11.1,4.7
		c2.9,3,4.3,6.9,4.3,10.7c0,3.5-1.2,7.1-3.6,9.9c-0.1,0.1-0.2,0.3-0.3,0.4L43.9,59.3c0,0,0,0,0,0c-1.9,2.5-2.8,5.6-2.8,8.6
		c0,3.8,1.5,7.5,4.4,10.3c2.8,2.7,6.4,4,10,4c3.8,0,7.5-1.5,10.3-4.4c2.7-2.8,4-6.4,4-10C69.8,64.2,68.3,60.4,65.4,57.6z M20.1,46.2
		c-0.1-0.4-0.1-0.9-0.1-1.3c0-1.3,0.4-2.5,1.2-3.5c0.8-1,1.8-1.7,3.2-2c0.4-0.1,0.9-0.1,1.3-0.1c1.3,0,2.5,0.4,3.5,1.2
		c0.7,0.6,1.3,1.3,1.7,2.2l0.4,1.2c0.1,0.4,0.1,0.7,0.1,1c0,1.3-0.4,2.5-1.2,3.5c-0.8,1-1.8,1.7-3.2,2c-0.4,0.1-0.9,0.1-1.3,0.1
		c-1.3,0-2.5-0.4-3.5-1.2C21.1,48.5,20.4,47.5,20.1,46.2"/>
</g>
<g id="working" display="none">
	
		<path display="inline" fill="none" stroke="#231F20" stroke-width="4.5" stroke-linecap="round" stroke-linejoin="round" stroke-miterlimit="10" d="
		M29.3,33.6c-1.9-6.2-0.3-13.2,4.6-18C41,8.8,52.2,9,59,16c6.3,6.6,6.6,16.8,0.8,23.7"/>
	
		<circle display="inline" fill="none" stroke="#231F20" stroke-width="4.5" stroke-linecap="round" stroke-linejoin="round" stroke-miterlimit="10" cx="24.5" cy="44.9" r="7.9"/>
	
		<line display="inline" fill="none" stroke="#231F20" stroke-width="4.5" stroke-linecap="round" stroke-linejoin="round" stroke-miterlimit="10" x1="29.2" y1="33.4" x2="32.2" y2="43.2"/>
	
		<path display="inline" fill="none" stroke="#231F20" stroke-width="4.5" stroke-linecap="round" stroke-linejoin="round" stroke-miterlimit="10" d="
		M62.8,59.2c4.8,4.7,4.9,12.3,0.3,17.1S50.8,81.3,46,76.7c-4.4-4.3-4.9-11.2-1.3-16"/>
	
		<line display="inline" fill="none" stroke="#231F20" stroke-width="4.5" stroke-linecap="round" stroke-linejoin="round" stroke-miterlimit="10" x1="60.4" y1="38.9" x2="44.7" y2="60.6"/>
</g>
</svg>
