<?xml version="1.0" encoding="utf-8"?>
<!-- Generator: Adobe Illustrator 23.0.4, SVG Export Plug-In . SVG Version: 6.00 Build 0)  -->
<svg version="1.0" xmlns="http://www.w3.org/2000/svg" xmlns:xlink="http://www.w3.org/1999/xlink" x="0px" y="0px"
	 viewBox="0 0 89.7 91.2" enable-background="new 0 0 89.7 91.2" xml:space="preserve">
<g id="outlines">
	<path fill="#6093D1" d="M68.3,70.9c-1.2-0.7-2.6-1.2-4-1.8V24.8c4.8-1.8,9-4.4,11.7-7.8c0.8-1,0.6-2.4-0.4-3.2
		c-1-0.8-2.4-0.6-3.2,0.4h0c-2.1,2.7-6,5.2-10.8,6.8C56.8,22.7,51,23.6,45,23.6c-3.9,0-7.9-0.4-11.7-1.3c-4-0.9-7.4-2.2-10.1-3.7
		c-2.7-1.5-4.7-3.3-5.9-5c-0.7-1-2.1-1.3-3.1-0.5c-1,0.7-1.3,2.1-0.5,3.1c1.7,2.4,4.2,4.5,7.4,6.3c1.3,0.7,2.8,1.4,4.3,2v44.5
		c-4.7,1.8-8.7,4.4-11.3,7.7c-0.8,1-0.6,2.4,0.4,3.2c1,0.8,2.4,0.6,3.2-0.4l0,0c2.1-2.7,6-5.2,10.8-6.8c4.8-1.7,10.6-2.6,16.6-2.6
		c3.9,0,7.9,0.4,11.7,1.3c3.7,0.8,6.9,2,9.5,3.4c2.6,1.4,4.6,3,5.9,4.6c0.8,1,2.2,1.1,3.2,0.3c1-0.8,1.1-2.2,0.3-3.2
		C73.8,74.4,71.4,72.5,68.3,70.9z M44.9,65.7c-5.3,0-10.4,0.7-15.1,2V26.1c0.8,0.2,1.6,0.4,2.5,0.6c4.2,0.9,8.5,1.4,12.7,1.4
		c5.2,0,10.2-0.7,14.8-1.9v41.4c-0.7-0.2-1.4-0.4-2.2-0.5C53.5,66.1,49.2,65.7,44.9,65.7z"/>
</g>
<g id="working" display="none">
	<g display="inline">
		
			<line fill="none" stroke="#231F20" stroke-width="4.5" stroke-linecap="round" stroke-linejoin="round" stroke-miterlimit="10" x1="27.6" y1="23.3" x2="27.6" y2="70"/>
		
			<line fill="none" stroke="#231F20" stroke-width="4.5" stroke-linecap="round" stroke-linejoin="round" stroke-miterlimit="10" x1="62.1" y1="23.3" x2="62.1" y2="70"/>
	</g>
	<g display="inline">
		
			<path fill="none" stroke="#231F20" stroke-width="4.5" stroke-linecap="round" stroke-linejoin="round" stroke-miterlimit="10" d="
			M74.2,15.6c-6.8,8.5-25.3,12.6-41.4,9c-8.4-1.9-14.4-5.4-17.4-9.6"/>
		
			<path fill="none" stroke="#231F20" stroke-width="4.5" stroke-linecap="round" stroke-linejoin="round" stroke-miterlimit="10" d="
			M15.8,78.2c6.8-8.5,25.3-12.6,41.4-9C65,71,70.8,74.2,73.9,78"/>
	</g>
</g>
</svg>
