<?xml version="1.0" encoding="utf-8"?>
<!-- Generator: Adobe Illustrator 23.0.4, SVG Export Plug-In . SVG Version: 6.00 Build 0)  -->
<svg version="1.0" xmlns="http://www.w3.org/2000/svg" xmlns:xlink="http://www.w3.org/1999/xlink" x="0px" y="0px"
	 viewBox="0 0 89.7 91.2" enable-background="new 0 0 89.7 91.2" xml:space="preserve">
<g id="outlines">
	<path fill="#3AB09E" d="M25.9,13.6c0.9,4.4,3.3,8.3,6.6,11.1c1.1,0.9,2.3,1.7,3.6,2.4c2.8-0.9,5.7-1.4,8.8-1.4c3.1,0,6,0.5,8.8,1.4
		c1.3-0.7,2.5-1.4,3.6-2.4c3.3-2.8,5.7-6.7,6.6-11.1c0.2-1.2-0.6-2.4-1.8-2.6c-1.2-0.2-2.4,0.6-2.6,1.8c-0.7,3.4-2.5,6.4-5.1,8.5
		c-2.6,2.1-5.9,3.4-9.5,3.4c-3.6,0-6.9-1.3-9.5-3.4c-2.6-2.1-4.4-5.1-5.1-8.5c-0.2-1.2-1.4-2-2.6-1.8C26.4,11.2,25.6,12.4,25.9,13.6
		L25.9,13.6z"/>
	<g>
		<path fill="#3AB09E" d="M71.3,54.5h2.2c0-15.9-12.9-28.7-28.7-28.7c-15.9,0-28.7,12.9-28.7,28.7c0,15.9,12.9,28.7,28.7,28.7
			c15.9,0,28.7-12.9,28.7-28.7H71.3h-2.2c0,6.7-2.7,12.8-7.1,17.1c-4.4,4.4-10.4,7.1-17.1,7.1c-6.7,0-12.8-2.7-17.1-7.1
			c-4.4-4.4-7.1-10.4-7.1-17.1c0-6.7,2.7-12.8,7.1-17.1c4.4-4.4,10.4-7.1,17.1-7.1c6.7,0,12.8,2.7,17.1,7.1
			c4.4,4.4,7.1,10.4,7.1,17.1H71.3z"/>
	</g>
</g>
<g id="working" display="none">
	<g display="inline">
		<circle fill="none" stroke="#231F20" stroke-width="4.5" stroke-miterlimit="10" cx="44.8" cy="53.5" r="26.5"/>
		
			<path fill="none" stroke="#231F20" stroke-width="4.5" stroke-linecap="round" stroke-linejoin="round" stroke-miterlimit="10" d="
			M28.1,13.2C29.6,21.1,36.5,27,44.8,27c8.3,0,15.2-5.9,16.8-13.8"/>
	</g>
</g>
</svg>
