<?xml version="1.0" encoding="utf-8"?>
<!-- Generator: Adobe Illustrator 23.0.4, SVG Export Plug-In . SVG Version: 6.00 Build 0)  -->
<svg version="1.0" id="Layer_1" xmlns="http://www.w3.org/2000/svg" xmlns:xlink="http://www.w3.org/1999/xlink" x="0px" y="0px"
	 viewBox="0 0 89.7 91.2" enable-background="new 0 0 89.7 91.2" xml:space="preserve">
<g id="working" display="none">
	
		<path display="inline" fill="none" stroke="#231F20" stroke-width="4.5" stroke-linecap="round" stroke-linejoin="round" stroke-miterlimit="10" d="
		M26.8,46.8c-9.4,0-16.9-7.6-16.9-16.9S17.5,13,26.8,13s16.9,7.6,16.9,16.9"/>
	
		<path display="inline" fill="none" stroke="#231F20" stroke-width="4.5" stroke-linecap="round" stroke-linejoin="round" stroke-miterlimit="10" d="
		M43.9,29.9c0-9.4,7.6-16.9,16.9-16.9s16.9,7.6,16.9,16.9s-7.6,16.9-16.9,16.9"/>
	
		<line display="inline" fill="none" stroke="#231F20" stroke-width="4.5" stroke-linecap="round" stroke-linejoin="round" stroke-miterlimit="10" x1="43.9" y1="28.8" x2="43.9" y2="79.4"/>
</g>
<g id="outlines">
	<g>
		<path fill="#456CAC" d="M11.1,64.2h17.7c0.2,0,0.4,0,0.6-0.1c0.6-0.1,1.2-0.4,1.5-0.9c0.7-1,0.5-2.4-0.5-3.1l0,0
			c-6.6-4.7-10.6-12.4-10.6-20.6c0-2.3,0.3-4.7,1-7c1.6-5.5,4.9-10,9.1-13.2c4.3-3.2,9.5-4.9,14.9-4.9c2.3,0,4.7,0.3,7,1
			c5.5,1.6,10,4.9,13.2,9.1c3.2,4.3,4.9,9.5,4.9,14.9c0,2.3-0.3,4.7-1,7c-1.6,5.7-5.1,10.3-9.6,13.5c-1,0.7-1.3,2.1-0.5,3.1
			c0.3,0.4,0.7,0.7,1.1,0.8c0.3,0.2,0.7,0.3,1,0.3h17.7c1.2,0,2.2-1,2.2-2.2s-1-2.2-2.2-2.2H66.4c3.1-3.3,5.5-7.3,6.8-11.9
			c0.8-2.7,1.2-5.5,1.2-8.2c0-6.4-2.1-12.6-5.8-17.6c-3.7-5-9.1-8.9-15.5-10.8c-2.7-0.8-5.5-1.2-8.2-1.2c-6.4,0-12.6,2.1-17.6,5.8
			S18.4,25,16.5,31.4c-0.8,2.7-1.2,5.5-1.2,8.2c0,7.6,2.9,14.7,8,20.1H11.1c-1.2,0-2.2,1-2.2,2.2C8.9,63.2,9.9,64.2,11.1,64.2z"/>
		<path fill="#456CAC" d="M78.5,76.7H11.1c-1.2,0-2.2,1-2.2,2.2s1,2.2,2.2,2.2h67.4c1.2,0,2.2-1,2.2-2.2
			C80.8,77.7,79.8,76.7,78.5,76.7z"/>
	</g>
</g>
</svg>
