<?xml version="1.0" encoding="utf-8"?>
<!-- Generator: Adobe Illustrator 23.0.4, SVG Export Plug-In . SVG Version: 6.00 Build 0)  -->
<svg version="1.0" xmlns="http://www.w3.org/2000/svg" xmlns:xlink="http://www.w3.org/1999/xlink" x="0px" y="0px"
	 viewBox="0 0 89.7 91.2" enable-background="new 0 0 89.7 91.2" xml:space="preserve">
<g id="outlines">
	<path fill="#E32636" d="M76.3,41.5c0-0.1-2.3-4.5-2.3-11.5l0,0c0-3.6,0.6-7.7,1.2-10.9c0.3-1.6,0.6-2.9,0.9-3.9
		c0.1-0.5,0.2-0.8,0.3-1.1c0-0.1,0-0.2,0.1-0.2c0.1-0.3,0.2-0.7,0.1-1c0,0,0,0,0-0.1c0-0.1,0-0.2,0-0.3c0,0,0-0.1,0-0.1
		c0,0,0-0.1,0-0.1c0-0.1-0.1-0.2-0.1-0.3c0,0,0-0.1-0.1-0.1c-0.1-0.1-0.1-0.2-0.2-0.2c0-0.1-0.1-0.1-0.1-0.1c0,0-0.1-0.1-0.2-0.1
		c-0.1-0.1-0.2-0.1-0.2-0.2c0,0-0.1,0-0.1-0.1c-0.1-0.1-0.2-0.1-0.3-0.1c0,0-0.1,0-0.1,0c0,0-0.1,0-0.1,0c-0.1,0-0.2,0-0.3,0
		c0,0,0,0-0.1,0c-0.4,0-0.7,0-1,0.1c-0.6,0.2-2.8,0.7-5.8,1.3c-3.1,0.6-6.9,1.1-10.3,1.1h0c-3.6,0-6.5-0.6-8.5-1.2
		c-1-0.3-1.8-0.6-2.3-0.8c-0.3-0.1-0.4-0.2-0.6-0.2L46,11.1l0,0l0,0c-1.1-0.6-2.5-0.2-3,0.9c-0.6,1.1-0.2,2.5,0.9,3
		c0.2,0.1,5.4,2.8,13.6,2.8h0h0c3.4,0,6.9-0.4,9.8-1L22.3,62L12.1,51.8c-0.9-0.9-2.3-0.9-3.2,0C8,52.7,8,54.1,8.9,55l10.2,10.2
		l-8.9,8.9c-0.9,0.9-0.9,2.3,0,3.2c0.9,0.9,2.3,0.9,3.2,0l8.9-8.9l10.2,10.2c0.9,0.9,2.3,0.9,3.2,0c0.9-0.9,0.9-2.3,0-3.2L25.5,65.2
		l45-45c-0.5,3-1,6.5-1,9.8l0,0c0,8.2,2.7,13.4,2.8,13.6c0.6,1.1,1.9,1.5,3,0.9C76.5,44,76.9,42.6,76.3,41.5L76.3,41.5z"/>
</g>
<g id="working" display="none">
	
		<line display="inline" fill="none" stroke="#231F20" stroke-width="4.5" stroke-linecap="round" stroke-linejoin="round" stroke-miterlimit="10" x1="74.3" y1="13.2" x2="11.8" y2="75.7"/>
	
		<line display="inline" fill="none" stroke="#231F20" stroke-width="4.5" stroke-linecap="round" stroke-linejoin="round" stroke-miterlimit="10" x1="34.1" y1="77" x2="10.5" y2="53.4"/>
	<g display="inline">
		
			<path fill="none" stroke="#231F20" stroke-width="4.5" stroke-linecap="round" stroke-linejoin="round" stroke-miterlimit="10" d="
			M74.4,13.1c0,0-9.1,2.5-16.9,2.5c-7.7,0-12.6-2.6-12.6-2.6"/>
		
			<path fill="none" stroke="#231F20" stroke-width="4.5" stroke-linecap="round" stroke-linejoin="round" stroke-miterlimit="10" d="
			M74.4,13.1c0,0-2.6,9.1-2.6,16.9s2.5,12.6,2.5,12.6"/>
	</g>
</g>
</svg>
